<svg width="15" height="15" viewBox="0 0 15 15" fill="none" xmlns="http://www.w3.org/2000/svg">
<path d="M10.9396 0H4.06036C1.82144 0 0 1.82144 0 4.06036V10.9397C0 13.1785 1.82144 15 4.06036 15H10.9397C13.1785 15 15 13.1785 15 10.9397V4.06036C15 1.82144 13.1785 0 10.9396 0V0ZM14.1206 10.9397C14.1206 12.6936 12.6936 14.1206 10.9396 14.1206H4.06036C2.30632 14.1206 0.879362 12.6936 0.879362 10.9397V4.06036C0.879362 2.30632 2.30632 0.879362 4.06036 0.879362H10.9397C12.6936 0.879362 14.1206 2.30632 14.1206 4.06036V10.9397Z" fill="black"/>
<path d="M7.5 3.39855C5.23842 3.39855 3.39856 5.23841 3.39856 7.49999C3.39856 9.76156 5.23842 11.6014 7.5 11.6014C9.76158 11.6014 11.6014 9.76156 11.6014 7.49999C11.6014 5.23841 9.76158 3.39855 7.5 3.39855ZM7.5 10.7221C5.72342 10.7221 4.27792 9.27668 4.27792 7.49999C4.27792 5.72341 5.72342 4.27791 7.5 4.27791C9.27669 4.27791 10.7221 5.72341 10.7221 7.49999C10.7221 9.27668 9.27669 10.7221 7.5 10.7221Z" fill="black"/>
<path d="M11.6995 1.94194C11.0311 1.94194 10.4875 2.48565 10.4875 3.15387C10.4875 3.8222 11.0311 4.36591 11.6995 4.36591C12.3678 4.36591 12.9115 3.8222 12.9115 3.15387C12.9115 2.48554 12.3678 1.94194 11.6995 1.94194ZM11.6995 3.48644C11.5161 3.48644 11.3669 3.33721 11.3669 3.15387C11.3669 2.97042 11.5161 2.82131 11.6995 2.82131C11.8829 2.82131 12.0322 2.97042 12.0322 3.15387C12.0322 3.33721 11.8829 3.48644 11.6995 3.48644Z" fill="black"/>
</svg>
