<svg width="11" height="15" viewBox="0 0 11 15" fill="none" xmlns="http://www.w3.org/2000/svg">
<path d="M5.27264 15L4.95518 14.659C4.90952 14.61 3.82496 13.4401 2.67288 11.784C1.10916 9.53602 0.224762 7.56489 0.0444031 5.92507C0.014534 5.68806 0 5.47463 0 5.27264C0 2.36538 2.36538 0 5.27275 0C8.17921 0 10.5446 2.36492 10.5455 5.27172C10.5455 5.4681 10.5313 5.67879 10.502 5.91568C10.3257 7.55608 9.44241 9.52915 7.87663 11.7801C6.72306 13.4382 5.63587 14.61 5.59021 14.6591L5.27264 15ZM5.27275 0.867691C2.84386 0.867691 0.867691 2.84386 0.867691 5.27275C0.867691 5.43892 0.880165 5.61791 0.9058 5.81978L0.906601 5.8271C1.23585 8.83679 4.27254 12.557 5.27287 13.7105C6.27457 12.5562 9.31801 8.83003 9.63959 5.81966L9.6405 5.81234C9.66591 5.60703 9.67781 5.43526 9.67781 5.27184C9.67701 2.84351 7.70085 0.867691 5.27275 0.867691ZM5.27275 8.81916C3.3173 8.81916 1.72634 7.2282 1.72634 5.27275C1.72634 3.3173 3.3173 1.72634 5.27275 1.72634C7.22775 1.72634 8.81825 3.3173 8.81825 5.27275C8.81825 7.2282 7.22775 8.81916 5.27275 8.81916ZM5.27275 2.59415C3.79578 2.59415 2.59415 3.79578 2.59415 5.27275C2.59415 6.74973 3.79578 7.95136 5.27275 7.95136C6.74927 7.95136 7.95056 6.74973 7.95056 5.27275C7.95056 3.79578 6.74927 2.59415 5.27275 2.59415Z" fill="black"/>
</svg>
