<svg width="15" height="10" viewBox="0 0 15 10" fill="none" xmlns="http://www.w3.org/2000/svg">
<path d="M14.4883 0H0.511665C0.229568 0 0 0.229568 0 0.511665V8.61088C0 8.89297 0.229568 9.12243 0.511665 9.12243H14.4883C14.7704 9.12243 15 8.89297 15 8.61088V0.511665C15 0.229568 14.7704 0 14.4883 0ZM0.879822 1.26057L5.08415 4.05499L0.879822 7.71481V1.26057ZM7.5 4.60419L1.89651 0.879822H13.1035L7.5 4.60419ZM5.84404 4.5599L7.21676 5.47234C7.30282 5.52956 7.40135 5.55817 7.5 5.55817C7.59853 5.55817 7.69718 5.52944 7.78324 5.47234L9.15596 4.5599L13.3865 8.24261H1.6135L5.84404 4.5599ZM9.91585 4.05487L14.1202 1.26045V7.71481L9.91585 4.05487Z" fill="black"/>
</svg>
