<svg width="15" height="13" viewBox="0 0 15 13" fill="none" xmlns="http://www.w3.org/2000/svg">
<path d="M5.70751 12.3841C3.204 12.3841 1.22531 11.9467 0.278657 11.1843L0.260232 11.1695L0.243524 11.1527C0.0186474 10.9278 -0.0550525 10.6326 0.0415356 10.3431L0.0503475 10.319C0.167535 10.026 0.454667 9.82866 0.765832 9.82683C1.40624 9.81573 1.96655 9.7394 2.47501 9.5912C1.66396 9.214 1.10057 8.56088 0.765374 7.6156C0.65265 7.3208 0.749925 6.99396 1.00971 6.79907C1.07379 6.75089 1.14623 6.7145 1.22291 6.69012C0.772241 6.16987 0.439332 5.57787 0.252908 4.95176L0.247071 4.93231L0.243066 4.91239C0.17978 4.59574 0.321344 4.27015 0.580781 4.12996C0.689614 4.06748 0.807832 4.03509 0.926507 4.03234C0.798562 3.75677 0.705522 3.47387 0.650361 3.18926C0.497239 2.40053 0.623582 1.60986 1.02573 0.839212L1.11877 0.653132C1.19327 0.504244 1.33563 0.399645 1.49974 0.37298C1.66385 0.34643 1.83208 0.400675 1.94961 0.518206L2.1191 0.687922C3.45805 2.09165 4.6574 2.7577 6.73095 3.2134C6.82353 2.41747 7.16766 1.67761 7.72281 1.09533C8.38348 0.402506 9.2657 0.0137501 10.207 0.000474979H10.2132C10.8999 0.000474979 11.7518 0.39255 12.267 0.669039C12.709 0.524386 13.2415 0.300425 13.794 0.0636464C14.0525 -0.057661 14.3713 -0.00215718 14.5745 0.20109C14.7737 0.400331 14.829 0.681284 14.7233 0.95434C14.6831 1.06615 14.6376 1.1759 14.5869 1.28324C14.6625 1.31792 14.7317 1.36495 14.7902 1.42343C14.967 1.60024 15.0407 1.87696 14.9779 2.1285L14.9712 2.15242C14.7594 2.83472 14.3527 3.39044 13.8148 3.73926C13.725 8.523 10.1226 12.3841 5.70751 12.3841ZM1.1222 10.6944C2.01427 11.1991 3.71429 11.5044 5.70751 11.5044C7.62382 11.5044 9.43221 10.6817 10.7994 9.18779C12.1779 7.68163 12.937 5.68155 12.937 3.55593V3.53201C12.937 3.33952 13.0429 3.16385 13.2135 3.07344C13.5594 2.89022 13.8396 2.57814 14.0218 2.17909C13.8338 2.20873 13.6428 2.13331 13.5258 1.97607C13.3897 1.79331 13.3882 1.54646 13.522 1.36209C13.5942 1.26253 13.6597 1.15896 13.718 1.05184C13.2409 1.25223 12.7879 1.4319 12.3945 1.55126C12.2516 1.59452 12.0923 1.57759 11.9617 1.50469C11.2614 1.11456 10.6092 0.881327 10.216 0.880182C8.76502 0.902384 7.58525 2.1451 7.58525 3.65183C7.58525 3.80758 7.51613 3.95361 7.39585 4.0526C7.27546 4.15148 7.11891 4.19107 6.96601 4.16086C4.57511 3.68982 3.15833 2.98349 1.68502 1.50297C1.47388 2.00891 1.4162 2.51852 1.51382 3.02172C1.61281 3.53144 1.87614 4.04219 2.27542 4.49869C2.42717 4.67195 2.44731 4.91983 2.32555 5.11541C2.20424 5.31031 1.97364 5.4014 1.75197 5.34201C1.57871 5.29554 1.4194 5.23455 1.26834 5.15615C1.57607 5.8246 2.10536 6.44281 2.77072 6.89875C2.96356 7.03092 3.04412 7.27732 2.96676 7.49796C2.88928 7.71894 2.67288 7.86119 2.43896 7.8438C2.1841 7.82491 1.95831 7.77651 1.75048 7.69491C2.12356 8.45468 2.71968 8.87274 3.63807 9.0325C3.85677 9.0706 4.02706 9.2433 4.06185 9.46222C4.09675 9.68115 3.98837 9.89813 3.79234 10.0022C3.00956 10.4171 2.154 10.6398 1.1222 10.6944Z" fill="black"/>
</svg>
