<svg width="15" height="15" viewBox="0 0 15 15" fill="none" xmlns="http://www.w3.org/2000/svg">
<path d="M12.8695 2.13055C11.4955 0.756569 9.66911 0 7.72591 0C7.72579 0 7.72534 0 7.72522 0C6.76415 0.000114441 5.82756 0.186195 4.94167 0.553207C4.05567 0.920219 3.26191 1.45088 2.58225 2.13055C1.20838 3.50441 0.451814 5.33112 0.451814 7.27409C0.451814 8.43281 0.731394 9.58431 1.26114 10.6103L0.0384539 14.1032C-0.0477201 14.3496 0.0132769 14.6174 0.197984 14.802C0.327188 14.9313 0.497247 15 0.672113 15C0.747072 15 0.822832 14.9874 0.896761 14.9615L4.38973 13.739C5.41569 14.2687 6.56719 14.5483 7.72591 14.5483C9.66889 14.5483 11.4955 13.7916 12.8695 12.4178C14.2433 11.0439 15 9.21719 15 7.27421C15 5.33112 14.2434 3.50441 12.8695 2.13055ZM12.2474 11.7957C11.0397 13.0035 9.43382 13.6685 7.72591 13.6685C6.68106 13.6685 5.64308 13.4101 4.72412 12.9209C4.5575 12.8324 4.36054 12.8172 4.18373 12.8791L1.01029 13.9897L2.12105 10.8163C2.18296 10.6392 2.16763 10.4423 2.07905 10.2758C1.59004 9.35703 1.33152 8.31905 1.33152 7.27409C1.33152 5.56618 1.99665 3.96034 3.20435 2.75265C4.41193 1.54507 6.01753 0.879936 7.72534 0.879707H7.72591C9.43394 0.879707 11.0397 1.54484 12.2474 2.75265C13.4552 3.96034 14.1203 5.56606 14.1203 7.27409C14.1203 8.98212 13.4552 10.588 12.2474 11.7957Z" fill="black"/>
<path d="M10.4292 7.92389C10.0946 7.58926 9.55004 7.58926 9.21542 7.92389L8.84944 8.28987C7.94066 7.79468 7.20526 7.05929 6.70996 6.15051L7.07595 5.78453C7.41069 5.44991 7.41069 4.9054 7.07595 4.57077L6.08969 3.58452C5.75507 3.24989 5.21056 3.24989 4.87593 3.58452L4.08698 4.37347C3.63505 4.8254 3.61251 5.60234 4.02346 6.56124C4.38029 7.3938 5.03329 8.30887 5.86219 9.13776C6.69108 9.96666 7.60615 10.6197 8.43871 10.9765C8.8943 11.1717 9.30869 11.2691 9.66677 11.2691C10.0624 11.2691 10.3892 11.1502 10.6265 10.913L11.4154 10.1239V10.124C11.5776 9.96185 11.6669 9.74636 11.6669 9.51713C11.6669 9.2878 11.5776 9.0723 11.4154 8.91025L10.4292 7.92389ZM10.0044 10.2909C9.8754 10.4198 9.47875 10.465 8.78535 10.168C8.05316 9.85416 7.23593 9.26731 6.48429 8.51566C5.73264 7.76401 5.1459 6.94691 4.8321 6.21471C4.5349 5.52132 4.5801 5.12455 4.70908 4.99557L5.48293 4.22173L6.43874 5.17765L5.98063 5.63587C5.77349 5.84301 5.72348 6.15715 5.85635 6.41762C6.45865 7.59865 7.4013 8.5413 8.58233 9.1436C8.84291 9.27647 9.15705 9.22657 9.36419 9.01932L9.8223 8.56121L10.7782 9.51713L10.0044 10.2909Z" fill="black"/>
</svg>
