<svg width="15" height="15" viewBox="0 0 15 15" fill="none" xmlns="http://www.w3.org/2000/svg">
<path d="M14.9999 7.51179C14.9999 7.50778 15 7.50389 15 7.5C15 5.49671 14.2199 3.61324 12.8033 2.19669C11.3868 0.780144 9.50329 0 7.5 0C5.49671 0 3.61324 0.780144 2.19669 2.19669C0.780144 3.61324 0 5.49671 0 7.5C0 7.50389 0.000114441 7.50778 0.000114441 7.51179C0.000114441 7.5127 0 7.51362 0 7.51465C0 7.51625 0.000228882 7.51774 0.000228882 7.51934C0.0052643 9.51542 0.784721 11.3913 2.19669 12.8033C3.61324 14.2199 5.49671 15 7.5 15C7.7005 15 7.89974 14.9919 8.0975 14.9763C8.09921 14.9762 8.10081 14.9761 8.10253 14.9759C9.87865 14.8357 11.5297 14.0769 12.8033 12.8033C14.2153 11.3913 14.9947 9.51542 14.9998 7.51934C14.9998 7.51774 15 7.51625 15 7.51465C15 7.51373 14.9999 7.5127 14.9999 7.51179ZM13.5632 10.1694H11.0239C11.2741 9.32419 11.3826 8.57311 11.4173 7.95399H14.1058C14.0538 8.72715 13.8694 9.47445 13.5632 10.1694ZM1.43738 4.82929H3.96961C3.71567 5.68932 3.61027 6.45149 3.57971 7.07531H0.89241C0.941734 6.29128 1.12701 5.53333 1.43738 4.82929ZM7.93934 3.95061V0.979156C8.31768 1.41884 9.15974 2.48852 9.78642 3.95061H7.93934ZM10.1169 4.82929C10.3407 5.51983 10.5 6.27491 10.5413 7.07531H7.93934V4.82929H10.1169ZM7.06066 3.95061H5.22148C5.4221 3.4837 5.63931 3.06828 5.84393 2.7174C6.3192 1.90258 6.79951 1.30177 7.06066 0.998154V3.95061ZM7.06066 4.82929V7.07531H4.4593C4.50211 6.2693 4.66702 5.51159 4.8896 4.82929H7.06066ZM0.894241 7.95399H3.58257C3.6256 8.74271 3.77312 9.48795 3.97648 10.1694H1.43681C1.13056 9.47445 0.946198 8.72715 0.894241 7.95399ZM4.46239 7.95399H7.06066V10.1694H4.8959C4.67159 9.48647 4.50966 8.74157 4.46239 7.95399ZM7.06066 11.048V14.0008C6.68381 13.5579 5.85411 12.4929 5.22995 11.048H7.06066ZM7.93934 11.048H9.77211C9.57355 11.5114 9.35909 11.9242 9.15688 12.2738C8.68103 13.0966 8.20004 13.7044 7.93934 14.0109V11.048ZM7.93934 10.1694V7.95399H10.5371C10.4889 8.74775 10.3241 9.49516 10.1038 10.1694H7.93934ZM11.4211 7.07531C11.3869 6.32915 11.259 5.57911 11.0381 4.82929H13.5626C13.873 5.53333 14.0583 6.29128 14.1076 7.07531H11.4211ZM13.0923 3.95061H10.7363C10.5439 3.45932 10.312 2.96883 10.0405 2.48039C9.73114 1.9241 9.4162 1.45386 9.14326 1.0833C10.2832 1.37306 11.3286 1.96461 12.182 2.81799C12.5299 3.16578 12.8341 3.54561 13.0923 3.95061ZM2.81799 2.81799C3.6755 1.96049 4.72687 1.36723 5.87311 1.07895C5.63725 1.39732 5.36808 1.79146 5.09834 2.25185C4.75273 2.84168 4.48231 3.41057 4.27094 3.95061H1.90773C2.16591 3.54561 2.47009 3.16578 2.81799 2.81799ZM1.90693 11.048H4.27998C4.53506 11.6978 4.82643 12.2677 5.09777 12.7335C5.36991 13.2005 5.64125 13.6004 5.8786 13.9225C4.73019 13.6347 3.67687 13.0409 2.81799 12.182C2.46975 11.8338 2.16522 11.4536 1.90693 11.048ZM12.182 12.182C11.3252 13.0389 10.2747 13.6319 9.12941 13.9205C9.36527 13.5989 9.63455 13.2009 9.9044 12.7362C10.245 12.15 10.5124 11.5847 10.7221 11.0481H13.0931C12.8348 11.4536 12.5303 11.8338 12.182 12.182Z" fill="black"/>
</svg>
